<?xml version="1.0" encoding="utf-8"?>
<!-- Generator: Adobe Illustrator 16.0.0, SVG Export Plug-In . SVG Version: 6.00 Build 0)  -->
<!DOCTYPE svg PUBLIC "-//W3C//DTD SVG 1.1//EN" "http://www.w3.org/Graphics/SVG/1.1/DTD/svg11.dtd">
<svg version="1.1"
	 id="Layer_1" xmlns:dc="http://purl.org/dc/elements/1.1/" xmlns:cc="http://creativecommons.org/ns#" xmlns:rdf="http://www.w3.org/1999/02/22-rdf-syntax-ns#" xmlns:svg="http://www.w3.org/2000/svg"
	 xmlns="http://www.w3.org/2000/svg" xmlns:xlink="http://www.w3.org/1999/xlink" x="0px" y="0px" width="841.891px"
	 height="595.275px" viewBox="-348.945 -225.638 841.891 595.275" enable-background="new -348.945 -225.638 841.891 595.275"
	 xml:space="preserve">
<path d="M74.025,41.875h33.484v-3.686c-1.625,0-2.775,0-4.327,0l-9.9-15.997c-1.002-1.617-2.772-2.605-4.681-2.605
	c-1.907,0-3.679,0.989-4.678,2.605l-9.898,15.997V41.875z"/>
<path d="M107.51,41.875h33.484v-3.686c-1.625,0-2.775,0-4.328,0l-9.899-15.997c-1.003-1.617-2.773-2.605-4.681-2.605
	c-1.908,0-3.68,0.989-4.678,2.605l-9.898,15.997V41.875z"/>
<path d="M140.994,41.875h33.484v-3.686c-1.626,0-2.776,0-4.328,0l-9.9-15.997c-1.002-1.617-2.773-2.605-4.68-2.605
	c-1.908,0-3.68,0.989-4.679,2.605l-9.897,15.997V41.875z"/>
<path d="M174.479,41.875h33.483v-3.686c-1.625,0-2.776,0-4.327,0l-9.9-15.997c-1.002-1.617-2.773-2.605-4.681-2.605
	s-3.679,0.989-4.679,2.605l-9.896,15.997V41.875z"/>
<path d="M207.962,41.875h33.483v-3.686c-1.625,0-2.775,0-4.326,0l-9.9-15.997c-1.002-1.617-2.773-2.605-4.682-2.605
	c-1.906,0-3.678,0.989-4.678,2.605l-9.897,15.997V41.875z"/>
<path d="M241.445,41.875h33.484v-3.686c-1.625,0-2.775,0-4.327,0l-9.9-15.997c-1.002-1.617-2.773-2.605-4.681-2.605
	s-3.679,0.989-4.678,2.605l-9.898,15.997V41.875z"/>
<path d="M274.93,41.875h33.484v-3.686c-1.625,0-2.775,0-4.328,0l-9.9-15.997c-1.002-1.617-2.773-2.605-4.68-2.605
	c-1.908,0-3.679,0.989-4.678,2.605l-9.898,15.997V41.875z"/>
<path d="M308.414,41.875h33.484v-3.686c-1.625,0-2.776,0-4.328,0l-9.9-15.997c-1.002-1.617-2.773-2.605-4.681-2.605
	s-3.679,0.989-4.678,2.605l-9.897,15.997V41.875z"/>
<path d="M341.898,41.875h33.483v-3.686c-1.625,0-2.776,0-4.327,0l-9.9-15.997c-1.002-1.617-2.773-2.605-4.681-2.605
	s-3.679,0.989-4.678,2.605l-9.897,15.997V41.875z"/>
<path d="M375.382,41.875h33.484v-3.686c-1.625,0-2.776,0-4.327,0l-9.9-15.997c-1.003-1.617-2.773-2.605-4.682-2.605
	c-1.906,0-3.678,0.989-4.678,2.605l-9.897,15.997V41.875z"/>
<path d="M408.866,41.875h33.483v-3.686c-1.625,0-2.775,0-4.327,0l-9.9-15.997c-1.002-1.617-2.773-2.605-4.681-2.605
	s-3.679,0.989-4.678,2.605l-9.897,15.997V41.875z"/>
<path d="M442.35,41.875h33.484v-3.686c-1.625,0-2.775,0-4.327,0l-9.9-15.997c-1.002-1.617-2.773-2.605-4.681-2.605
	s-3.679,0.989-4.678,2.605l-9.898,15.997V41.875z"/>
<path d="M475.834,41.875h33.484v-3.686c-1.625,0-2.776,0-4.328,0l-9.9-15.997c-1.002-1.617-2.773-2.605-4.681-2.605
	s-3.679,0.989-4.678,2.605l-9.897,15.997V41.875z"/>
<path d="M509.318,41.875h33.483v-3.686c-1.625,0-2.775,0-4.327,0l-9.9-15.997c-1.002-1.617-2.773-2.605-4.681-2.605
	s-3.679,0.989-4.678,2.605l-9.897,15.997V41.875z"/>
<path d="M542.802,41.875h33.484v-3.686c-1.625,0-2.776,0-4.328,0l-9.9-15.997c-1.002-1.617-2.772-2.605-4.681-2.605
	c-1.906,0-3.678,0.989-4.678,2.605l-9.897,15.997V41.875z"/>
<path d="M576.286,41.875h33.483v-3.686c-1.625,0-2.775,0-4.327,0l-9.9-15.997c-1.002-1.617-2.772-2.605-4.681-2.605
	c-1.907,0-3.679,0.989-4.678,2.605l-9.897,15.997V41.875z"/>
<path d="M-461.718,41.875h33.484v-3.686c-1.625,0-2.775,0-4.327,0l-9.9-15.997c-1.002-1.617-2.772-2.605-4.681-2.605
	c-1.907,0-3.679,0.989-4.678,2.605l-9.898,15.997V41.875z"/>
<path d="M-428.233,41.875h33.484v-3.686c-1.625,0-2.775,0-4.328,0l-9.899-15.997c-1.003-1.617-2.773-2.605-4.681-2.605
	c-1.908,0-3.68,0.989-4.678,2.605l-9.898,15.997V41.875z"/>
<path d="M-394.749,41.875h33.484v-3.686c-1.626,0-2.776,0-4.328,0l-9.9-15.997c-1.002-1.617-2.773-2.605-4.68-2.605
	c-1.908,0-3.68,0.989-4.679,2.605l-9.897,15.997V41.875z"/>
<path d="M-361.265,41.875h33.483v-3.686c-1.625,0-2.776,0-4.327,0l-9.9-15.997c-1.002-1.617-2.773-2.605-4.681-2.605
	s-3.679,0.989-4.679,2.605l-9.896,15.997V41.875z"/>
<path d="M-327.781,41.875h33.483v-3.686c-1.625,0-2.775,0-4.326,0l-9.9-15.997c-1.002-1.617-2.773-2.605-4.682-2.605
	c-1.906,0-3.678,0.989-4.678,2.605l-9.897,15.997V41.875z"/>
<path d="M-294.298,41.875h33.484v-3.686c-1.625,0-2.775,0-4.327,0l-9.9-15.997c-1.002-1.617-2.773-2.605-4.681-2.605
	s-3.679,0.989-4.678,2.605l-9.898,15.997V41.875z"/>
<path d="M-260.813,41.875h33.484v-3.686c-1.625,0-2.775,0-4.328,0l-9.9-15.997c-1.002-1.617-2.773-2.605-4.68-2.605
	c-1.908,0-3.679,0.989-4.678,2.605l-9.898,15.997V41.875z"/>
<path d="M-227.329,41.875h33.484v-3.686c-1.625,0-2.776,0-4.328,0l-9.9-15.997c-1.002-1.617-2.773-2.605-4.681-2.605
	s-3.679,0.989-4.678,2.605l-9.897,15.997V41.875z"/>
<path d="M-193.845,41.875h33.483v-3.686c-1.625,0-2.776,0-4.327,0l-9.9-15.997c-1.002-1.617-2.773-2.605-4.681-2.605
	s-3.679,0.989-4.678,2.605l-9.897,15.997V41.875z"/>
<path d="M-160.361,41.875h33.484v-3.686c-1.625,0-2.776,0-4.327,0l-9.9-15.997c-1.003-1.617-2.773-2.605-4.682-2.605
	c-1.906,0-3.678,0.989-4.678,2.605l-9.897,15.997V41.875z"/>
<path d="M-126.877,41.875h33.483v-3.686c-1.625,0-2.775,0-4.327,0l-9.9-15.997c-1.002-1.617-2.773-2.605-4.681-2.605
	s-3.679,0.989-4.678,2.605l-9.897,15.997V41.875z"/>
<path d="M-93.394,41.875h33.484v-3.686c-1.625,0-2.775,0-4.327,0l-9.9-15.997c-1.002-1.617-2.773-2.605-4.681-2.605
	s-3.679,0.989-4.678,2.605l-9.898,15.997V41.875z"/>
<path d="M-59.909,41.875h33.484v-3.686c-1.625,0-2.776,0-4.328,0l-9.9-15.997c-1.002-1.617-2.773-2.605-4.681-2.605
	s-3.679,0.989-4.678,2.605l-9.897,15.997V41.875z"/>
<path d="M-26.425,41.875H7.059v-3.686c-1.625,0-2.775,0-4.327,0l-9.9-15.997c-1.002-1.617-2.773-2.605-4.681-2.605
	s-3.679,0.989-4.678,2.605l-9.897,15.997V41.875z"/>
<path d="M7.059,41.875h33.484v-3.686c-1.625,0-2.776,0-4.328,0l-9.9-15.997c-1.002-1.617-2.772-2.605-4.681-2.605
	c-1.906,0-3.678,0.989-4.678,2.605L7.059,38.189V41.875z"/>
<path d="M40.543,41.875h33.482v-3.686c-1.624,0-2.774,0-4.326,0l-9.9-15.997c-1.002-1.617-2.772-2.605-4.681-2.605
	c-1.907,0-3.679,0.989-4.678,2.605l-9.897,15.997V41.875z"/>
<path d="M-461.718,41.875v31.291h55.059l17.391,18.247c4.021,4.209,10.682,4.366,14.89,0.34l19.433-18.587h166.954l17.391,18.247
	c4.021,4.209,10.682,4.366,14.89,0.34l19.433-18.587H28.092l17.391,18.247c4.021,4.209,10.682,4.366,14.889,0.34l19.433-18.587
	h167.288l17.391,18.247c4.021,4.209,10.682,4.366,14.889,0.34l19.433-18.587h167.788l17.391,18.247
	c4.021,4.209,10.682,4.366,14.889,0.34l19.433-18.587h91.466V41.875H-461.718z M-373.298,73.94
	c-4.608,4.417-11.919,4.245-16.333-0.378c-4.398-4.621-4.232-11.939,0.385-16.354c4.609-4.416,11.919-4.241,16.329,0.375
	C-368.511,62.211-368.678,69.529-373.298,73.94z M-154.631,73.94c-4.608,4.417-11.919,4.245-16.333-0.378
	c-4.398-4.621-4.232-11.939,0.385-16.354c4.609-4.416,11.919-4.241,16.329,0.375C-149.844,62.211-150.011,69.529-154.631,73.94z
	 M61.453,73.94c-4.609,4.417-11.92,4.245-16.334-0.378c-4.398-4.621-4.232-11.939,0.385-16.354c4.609-4.416,11.92-4.241,16.33,0.375
	C66.24,62.211,66.072,69.529,61.453,73.94z M280.453,73.94c-4.609,4.417-11.92,4.245-16.334-0.378
	c-4.398-4.621-4.232-11.939,0.385-16.354c4.609-4.416,11.92-4.241,16.33,0.375C285.24,62.211,285.072,69.529,280.453,73.94z
	 M499.953,73.94c-4.609,4.417-11.92,4.245-16.334-0.378c-4.398-4.621-4.232-11.939,0.385-16.354
	c4.609-4.416,11.92-4.241,16.33,0.375C504.74,62.211,504.572,69.529,499.953,73.94z"/>
</svg>
