<?xml version="1.0" encoding="utf-8"?>
<!-- Generator: Adobe Illustrator 16.0.0, SVG Export Plug-In . SVG Version: 6.00 Build 0)  -->
<!DOCTYPE svg PUBLIC "-//W3C//DTD SVG 1.1//EN" "http://www.w3.org/Graphics/SVG/1.1/DTD/svg11.dtd">
<svg version="1.1"
	 id="Layer_1"
	 xmlns="http://www.w3.org/2000/svg"  x="0px" y="0px" width="144px" height="144px"
	 viewBox="0 0 144 144" enable-background="new 0 0 144 144" xml:space="preserve">
<path d="M108.885,69.258l-5.842-3.617c-0.108-0.645-0.237-1.282-0.383-1.913l3.996-5.557c0.418-0.577,0.504-1.329,0.23-1.986
	c-0.271-0.659-0.864-1.129-1.566-1.24l-6.771-1.105c-0.349-0.555-0.715-1.098-1.095-1.629l1.564-6.656
	c0.165-0.693-0.043-1.421-0.547-1.923c-0.503-0.504-1.231-0.712-1.922-0.545l-6.663,1.566c-0.54-0.386-1.091-0.756-1.655-1.109
	l-1.097-6.721c-0.113-0.703-0.584-1.296-1.242-1.567c-0.657-0.273-1.41-0.188-1.983,0.231l-5.529,3.978
	c-0.658-0.152-1.323-0.287-1.997-0.397l-3.568-5.766c-0.375-0.604-1.036-0.973-1.748-0.973s-1.373,0.368-1.746,0.973l-3.566,5.763
	c-0.689,0.113-1.369,0.251-2.042,0.407l-5.477-3.942c-0.577-0.416-1.329-0.502-1.987-0.23c-0.657,0.272-1.127,0.866-1.24,1.567
	l-1.085,6.659c-0.601,0.375-1.187,0.771-1.761,1.183l-6.543-1.541c-0.692-0.164-1.421,0.044-1.924,0.547
	c-0.504,0.504-0.711,1.231-0.547,1.923l1.541,6.548c-0.418,0.583-0.819,1.179-1.199,1.79l-6.604,1.076
	c-0.702,0.113-1.296,0.585-1.567,1.242c-0.273,0.658-0.187,1.41,0.23,1.985l3.917,5.444c-0.163,0.704-0.307,1.415-0.424,2.136
	l-5.677,3.514c-0.605,0.374-0.974,1.037-0.973,1.748c-0.001,0.713,0.367,1.374,0.973,1.747l5.699,3.528
	c0.119,0.721,0.264,1.432,0.43,2.136l-3.901,5.42c-0.416,0.578-0.503,1.331-0.229,1.987c0.271,0.659,0.865,1.13,1.567,1.241
	l6.626,1.082c0.383,0.61,0.785,1.207,1.207,1.789l-1.533,6.518c-0.164,0.693,0.044,1.422,0.548,1.924
	c0.503,0.504,1.231,0.713,1.923,0.547l6.56-1.543c0.578,0.412,1.167,0.809,1.773,1.183l1.08,6.623
	c0.114,0.704,0.585,1.296,1.243,1.567c0.657,0.273,1.41,0.188,1.985-0.23l5.49-3.949c0.678,0.154,1.362,0.292,2.056,0.403
	l3.547,5.729c0.375,0.607,1.037,0.974,1.749,0.973c0.712,0.001,1.374-0.366,1.745-0.973l3.578-5.778
	c0.677-0.114,1.346-0.251,2.008-0.406l5.499,3.957c0.578,0.417,1.33,0.503,1.987,0.229c0.658-0.271,1.13-0.865,1.24-1.566l1.1-6.74
	c0.565-0.356,1.119-0.729,1.66-1.12l6.629,1.56c0.694,0.164,1.422-0.045,1.924-0.549c0.505-0.502,0.713-1.23,0.547-1.922
	l-1.57-6.674c0.381-0.536,0.747-1.081,1.094-1.641l6.739-1.1c0.704-0.113,1.296-0.585,1.567-1.242
	c0.274-0.657,0.188-1.41-0.23-1.984l-4.01-5.575c0.144-0.633,0.271-1.271,0.377-1.918l5.816-3.603
	c0.607-0.373,0.974-1.036,0.973-1.747C109.859,70.291,109.491,69.629,108.885,69.258z M72.972,44.51L72.972,44.51
	c-0.079,0.461-0.298,0.903-0.675,1.24c-0.879,0.79-2.234,0.718-3.022-0.161c-0.273-0.304-0.437-0.667-0.505-1.042
	c-0.104-0.688,0.112-1.411,0.669-1.912c0.881-0.789,2.234-0.717,3.023,0.161C72.898,43.282,73.055,43.911,72.972,44.51z
	 M44.547,60.953c0.598-0.265,1.244-0.22,1.789,0.044v0.001c0.414,0.217,0.766,0.561,0.97,1.024c0.479,1.08-0.008,2.347-1.087,2.825
	c-0.374,0.166-0.77,0.209-1.147,0.158c-0.686-0.113-1.308-0.542-1.611-1.227C42.982,62.697,43.469,61.433,44.547,60.953z
	 M44.901,67.515l4.071-1.952c0.971-0.467,1.38-1.631,0.912-2.603l-2.121-4.4C51.47,51.609,58.175,46.5,66.168,45.001
	c0.015-0.003,0.028-0.007,0.043-0.01l0.002,0.002c0.018-0.003,0.036-0.005,0.054-0.009l3.236,3.396
	c0.744,0.779,1.977,0.808,2.756,0.063l3.613-3.456c0.019,0.004,0.038,0.006,0.058,0.009l0.012-0.011
	c0.124,0.023,0.245,0.055,0.368,0.079c0.085,0.018,0.169,0.037,0.253,0.055c0.369,0.078,0.735,0.16,1.099,0.253
	c0.003,0,0.005,0.001,0.008,0.002c1.681,0.432,3.295,1.026,4.828,1.764c0.006,0.003,0.013,0.006,0.019,0.009
	c0.328,0.159,0.651,0.326,0.973,0.498c0.077,0.041,0.155,0.081,0.231,0.123c0.284,0.156,0.564,0.318,0.843,0.484
	c0.111,0.066,0.222,0.132,0.332,0.2c0.251,0.155,0.499,0.314,0.744,0.477c0.137,0.091,0.271,0.183,0.406,0.276
	c0.219,0.151,0.437,0.305,0.65,0.462c0.164,0.121,0.324,0.245,0.485,0.369c0.181,0.14,0.362,0.279,0.539,0.424
	c0.211,0.172,0.417,0.35,0.623,0.527c0.122,0.106,0.247,0.21,0.367,0.318c2.286,2.055,4.207,4.506,5.666,7.241l-2.187,4.049
	c-0.511,0.948-0.158,2.13,0.791,2.641l4.264,2.292c0.145,1.121,0.229,2.261,0.229,3.421c0,7.159-2.854,13.648-7.479,18.405
	l-4.315-0.789c-1.06-0.193-2.075,0.508-2.268,1.568l-0.83,4.586c-3.481,1.69-7.389,2.64-11.519,2.64
	c-4.128,0-8.035-0.949-11.515-2.638l-0.579-4.323c-0.144-1.067-1.124-1.816-2.192-1.672l-4.642,0.63
	c-4.627-4.757-7.481-11.247-7.481-18.407C44.653,69.783,44.754,68.642,44.901,67.515z M53.189,93.112
	c-0.067-0.65,0.176-1.251,0.596-1.688h0.001c0.334-0.326,0.771-0.555,1.273-0.605c1.176-0.122,2.229,0.732,2.351,1.907
	c0.043,0.406-0.039,0.796-0.204,1.14c-0.319,0.616-0.92,1.076-1.665,1.153C54.365,95.139,53.312,94.286,53.189,93.112z
	 M88.986,93.184c-0.25,1.155-1.387,1.893-2.541,1.646c-0.639-0.137-1.135-0.553-1.42-1.088c-0.207-0.419-0.289-0.904-0.183-1.398
	c0.247-1.156,1.386-1.895,2.54-1.646c0.4,0.085,0.745,0.283,1.021,0.547C88.892,91.738,89.143,92.451,88.986,93.184z M96.883,64.747
	c-0.463,0.068-0.949-0.004-1.387-0.258c-1.023-0.593-1.373-1.903-0.781-2.925c0.205-0.354,0.5-0.621,0.836-0.803
	c0.621-0.311,1.376-0.329,2.024,0.046c1.021,0.594,1.372,1.904,0.781,2.925C98.028,64.299,97.479,64.642,96.883,64.747z"/>
</svg>
